<svg width="101" height="18" viewBox="0 0 101 18" fill="none" xmlns="http://www.w3.org/2000/svg">
<path d="M12.6402 10.6367C12.4575 10.8138 12.3736 11.0699 12.4152 11.321L13.0423 14.7917C13.0952 15.0858 12.9711 15.3835 12.7249 15.5535C12.4836 15.7299 12.1627 15.7511 11.8995 15.61L8.77521 13.9804C8.66657 13.9226 8.54594 13.8916 8.4225 13.888H8.23132C8.16501 13.8979 8.10012 13.9191 8.04086 13.9515L4.91582 15.5888C4.76133 15.6664 4.58639 15.6939 4.41497 15.6664C3.99736 15.5874 3.71871 15.1895 3.78714 14.7698L4.41497 11.2991C4.45659 11.0459 4.37264 10.7884 4.18994 10.6085L1.64264 8.13951C1.4296 7.93282 1.35553 7.62244 1.45288 7.34238C1.54741 7.06303 1.78867 6.85917 2.08001 6.81331L5.58598 6.3047C5.85263 6.27719 6.08683 6.11494 6.20675 5.8751L7.75163 2.70773C7.78832 2.63719 7.83558 2.57229 7.89272 2.51727L7.95621 2.46789C7.98936 2.4312 8.02746 2.40087 8.06978 2.37618L8.14667 2.34796L8.2666 2.29858H8.56358C8.82882 2.3261 9.06232 2.48482 9.18436 2.72184L10.7497 5.8751C10.8626 6.10577 11.082 6.2659 11.3352 6.3047L14.8412 6.81331C15.1374 6.85564 15.3851 7.06021 15.4831 7.34238C15.5755 7.62526 15.4958 7.93565 15.2785 8.13951L12.6402 10.6367Z" fill="#F9B023"/>
<path d="M33.5704 10.6367C33.3877 10.8138 33.3038 11.0699 33.3454 11.321L33.9725 14.7917C34.0254 15.0858 33.9013 15.3835 33.6551 15.5535C33.4138 15.7299 33.0928 15.7511 32.8297 15.61L29.7054 13.9804C29.5967 13.9226 29.4761 13.8916 29.3527 13.888H29.1615C29.0952 13.8979 29.0303 13.9191 28.971 13.9515L25.846 15.5888C25.6915 15.6664 25.5166 15.6939 25.3451 15.6664C24.9275 15.5874 24.6489 15.1895 24.7173 14.7698L25.3451 11.2991C25.3868 11.0459 25.3028 10.7884 25.1201 10.6085L22.5728 8.13951C22.3598 7.93282 22.2857 7.62244 22.3831 7.34238C22.4776 7.06303 22.7188 6.85917 23.0102 6.81331L26.5162 6.3047C26.7828 6.27719 27.017 6.11494 27.1369 5.8751L28.6818 2.70773C28.7185 2.63719 28.7658 2.57229 28.8229 2.51727L28.8864 2.46789C28.9195 2.4312 28.9576 2.40087 29 2.37618L29.0768 2.34796L29.1968 2.29858H29.4938C29.759 2.3261 29.9925 2.48482 30.1145 2.72184L31.6799 5.8751C31.7927 6.10577 32.0121 6.2659 32.2654 6.3047L35.7713 6.81331C36.0676 6.85564 36.3152 7.06021 36.4133 7.34238C36.5057 7.62526 36.426 7.93565 36.2087 8.13951L33.5704 10.6367Z" fill="#F9B023"/>
<path d="M54.5006 10.6367C54.3179 10.8138 54.2339 11.0699 54.2756 11.321L54.9027 14.7917C54.9556 15.0858 54.8314 15.3835 54.5852 15.5535C54.344 15.7299 54.023 15.7511 53.7599 15.61L50.6356 13.9804C50.5269 13.9226 50.4063 13.8916 50.2828 13.888H50.0917C50.0254 13.8979 49.9605 13.9191 49.9012 13.9515L46.7762 15.5888C46.6217 15.6664 46.4467 15.6939 46.2753 15.6664C45.8577 15.5874 45.5791 15.1895 45.6475 14.7698L46.2753 11.2991C46.3169 11.0459 46.233 10.7884 46.0503 10.6085L43.503 8.13951C43.29 7.93282 43.2159 7.62244 43.3132 7.34238C43.4078 7.06303 43.649 6.85917 43.9404 6.81331L47.4463 6.3047C47.713 6.27719 47.9472 6.11494 48.0671 5.8751L49.612 2.70773C49.6487 2.63719 49.6959 2.57229 49.7531 2.51727L49.8166 2.46789C49.8497 2.4312 49.8878 2.40087 49.9301 2.37618L50.007 2.34796L50.1269 2.29858H50.4239C50.6892 2.3261 50.9227 2.48482 51.0447 2.72184L52.61 5.8751C52.7229 6.10577 52.9423 6.2659 53.1956 6.3047L56.7015 6.81331C56.9978 6.85564 57.2454 7.06021 57.3435 7.34238C57.4359 7.62526 57.3562 7.93565 57.1389 8.13951L54.5006 10.6367Z" fill="#F9B023"/>
<path d="M75.4308 10.6367C75.2481 10.8138 75.1641 11.0699 75.2057 11.321L75.8329 14.7917C75.8858 15.0858 75.7616 15.3835 75.5154 15.5535C75.2742 15.7299 74.9532 15.7511 74.6901 15.61L71.5657 13.9804C71.4571 13.9226 71.3365 13.8916 71.213 13.888H71.0219C70.9555 13.8979 70.8906 13.9191 70.8314 13.9515L67.7063 15.5888C67.5519 15.6664 67.3769 15.6939 67.2055 15.6664C66.7879 15.5874 66.5092 15.1895 66.5777 14.7698L67.2055 11.2991C67.2471 11.0459 67.1632 10.7884 66.9805 10.6085L64.4332 8.13951C64.2201 7.93282 64.1461 7.62244 64.2434 7.34238C64.3379 7.06303 64.5792 6.85917 64.8705 6.81331L68.3765 6.3047C68.6432 6.27719 68.8774 6.11494 68.9973 5.8751L70.5422 2.70773C70.5788 2.63719 70.6261 2.57229 70.6832 2.51727L70.7467 2.46789C70.7799 2.4312 70.818 2.40087 70.8603 2.37618L70.9372 2.34796L71.0571 2.29858H71.3541C71.6193 2.3261 71.8528 2.48482 71.9749 2.72184L73.5402 5.8751C73.6531 6.10577 73.8725 6.2659 74.1257 6.3047L77.6317 6.81331C77.928 6.85564 78.1756 7.06021 78.2736 7.34238C78.366 7.62526 78.2863 7.93565 78.0691 8.13951L75.4308 10.6367Z" fill="#F9B023"/>
<path d="M92.8744 2.73132L94.4451 5.88759C94.5608 6.11627 94.7816 6.27507 95.0363 6.31036L98.5642 6.82417C98.7703 6.85311 98.9572 6.9618 99.0835 7.12766C99.2084 7.2914 99.262 7.4989 99.2317 7.70287C99.207 7.87226 99.1273 8.02894 99.0052 8.14893L96.4489 10.6269C96.2619 10.7999 96.1773 11.0561 96.2224 11.3066L96.8518 14.7904C96.9188 15.211 96.6401 15.6077 96.2224 15.6874C96.0503 15.7149 95.8739 15.686 95.7186 15.607L92.5718 13.9674C92.3382 13.8496 92.0623 13.8496 91.8288 13.9674L88.6819 15.607C88.2952 15.8123 87.8162 15.6726 87.601 15.2915C87.5212 15.1397 87.493 14.9668 87.5191 14.7981L88.1485 11.3137C88.1936 11.0638 88.1083 10.8062 87.922 10.6333L85.3657 8.15669C85.0616 7.86309 85.0524 7.37962 85.3452 7.07543C85.3516 7.06908 85.3586 7.06202 85.3657 7.05496C85.487 6.93145 85.6465 6.85311 85.8187 6.83264L89.3466 6.31812C89.6006 6.28213 89.8214 6.12474 89.9378 5.89465L91.452 2.73132C91.5868 2.4603 91.8662 2.29162 92.1696 2.29868H92.2641C92.5273 2.33044 92.7566 2.49347 92.8744 2.73132Z" fill="#1E222B"/>
<path d="M92.1801 13.8795C92.0435 13.8838 91.9103 13.9205 91.7906 13.9861L88.6591 15.6219C88.2759 15.8048 87.8174 15.6629 87.6026 15.2965C87.523 15.1468 87.4941 14.9752 87.5209 14.8072L88.1464 11.3301C88.1886 11.0774 88.1041 10.8204 87.9203 10.6425L85.3628 8.16653C85.0592 7.86931 85.0536 7.38146 85.3508 7.07717C85.3551 7.07293 85.3586 7.0694 85.3628 7.06587C85.484 6.94585 85.6403 6.86678 85.8087 6.84207L89.3395 6.32245C89.5952 6.28997 89.817 6.13042 89.9297 5.89885L91.4645 2.6957C91.6103 2.4373 91.8899 2.28339 92.1857 2.29963C92.1801 2.50931 92.1801 13.7369 92.1801 13.8795Z" fill="#F9B023"/>
</svg>
